<svg xmlns="http://www.w3.org/2000/svg" xmlns:xlink="http://www.w3.org/1999/xlink" width="500" zoomAndPan="magnify" viewBox="0 0 375 374.999991" height="500" preserveAspectRatio="xMidYMid meet" version="1.0"><defs><clipPath id="0cc6f4fbc8"><rect x="0" width="375" y="0" height="375"/></clipPath></defs><g transform="matrix(1, 0, 0, 1, 0, 0)"><g clip-path="url(#0cc6f4fbc8)"><path fill="#88bf47" d="M 0 375 L 0 0 L 153.59375 0 L 153.59375 65.1875 L 48.800781 309.8125 L 117.230469 309.8125 L 145.96875 242.4375 L 185.132812 150.351562 L 212.03125 215.011719 L 229.03125 255.839844 L 251.460938 309.8125 L 278.535156 375 Z M 0 375 " fill-opacity="1" fill-rule="nonzero"/><path fill="#3e5368" d="M 153.59375 65.1875 L 181.542969 0 L 375 0 L 375 309.8125 L 326.199219 309.8125 L 221.757812 65.1875 Z M 153.59375 65.1875 " fill-opacity="1" fill-rule="nonzero"/><path fill="#2a3f51" d="M 221.757812 65.1875 L 286.945312 0 L 375 0 L 375 270.121094 L 326.199219 309.8125 Z M 221.757812 65.1875 " fill-opacity="1" fill-rule="nonzero"/><path fill="#5ea000" d="M 117.230469 309.8125 L 145.96875 242.4375 L 185.132812 150.351562 L 212.03125 215.011719 Z M 117.230469 309.8125 " fill-opacity="1" fill-rule="nonzero"/></g></g></svg>